<svg width="22" height="20" viewBox="0 0 22 20" fill="none" xmlns="http://www.w3.org/2000/svg">
  <path d="M21.8174 6.8999V12.3499H19.0739L18.7139 11.8593L17.8507 10.6834L17.263 9.88268L16.2583 8.514L16.5621 9.88268L17.0012 11.8593L17.11 12.3499L17.4403 13.836L17.8507 15.6849L17.8791 15.8126L18.3179 17.789L18.757 19.7656H12.5616L12.1225 17.789L11.9003 16.7878L11.6838 15.8126L11.2447 13.836L10.9147 12.3499L10.5847 13.836L10.1456 15.8126L9.9171 16.8418L9.70683 17.789L9.26776 19.7656H3.06044L3.49952 17.789L3.92631 15.8662V15.8659L3.96667 15.8365L3.99967 15.8126L5.95014 14.3907L6.71129 13.836L7.93362 12.9448L8.74985 12.3499H0V6.8999H5.91743L5.95014 6.75316L6.13314 5.92966L6.57195 3.95301L7.01103 1.97637L7.44981 0H14.3676L14.8064 1.97637L14.8983 2.39002L13.8838 3.12952L12.7539 3.95301L11.9003 4.5754L10.0425 5.92966L9.9171 6.02099L8.71141 6.8999H21.8174Z" fill="#1E1E1E"/>
</svg>
